G04*
G04 #@! TF.GenerationSoftware,Altium Limited,Altium Designer,21.2.1 (34)*
G04*
G04 Layer_Physical_Order=2*
G04 Layer_Color=32768*
%FSLAX25Y25*%
%MOIN*%
G70*
G04*
G04 #@! TF.SameCoordinates,1D3D90CA-2CC7-45D0-A42F-5F1F34DB6ECE*
G04*
G04*
G04 #@! TF.FilePolarity,Negative*
G04*
G01*
G75*
%ADD55C,0.01181*%
%ADD66C,0.01968*%
%ADD67C,0.04000*%
%ADD68R,0.73858X0.29488*%
G04:AMPARAMS|DCode=69|XSize=39.496mil|YSize=39.496mil|CornerRadius=0mil|HoleSize=0mil|Usage=FLASHONLY|Rotation=0.000|XOffset=0mil|YOffset=0mil|HoleType=Round|Shape=Relief|Width=4mil|Gap=4mil|Entries=4|*
%AMTHD69*
7,0,0,0.03950,0.03150,0.00400,45*
%
%ADD69THD69*%
G04:AMPARAMS|DCode=70|XSize=110.362mil|YSize=110.362mil|CornerRadius=0mil|HoleSize=0mil|Usage=FLASHONLY|Rotation=0.000|XOffset=0mil|YOffset=0mil|HoleType=Round|Shape=Relief|Width=4mil|Gap=4mil|Entries=4|*
%AMTHD70*
7,0,0,0.11036,0.10236,0.00400,45*
%
%ADD70THD70*%
%AMTHRECTD71*
4,1,4,-0.07487,-0.03550,-0.07487,0.03550,0.07487,0.03550,0.07487,-0.03550,-0.07487,-0.03550,0.0*
4,0,4,-0.07087,-0.03150,-0.07087,0.03150,0.07087,0.03150,0.07087,-0.03150,-0.07087,-0.03150,0.0*
20,0,0.00400,-0.03937,0.00000,-0.11036,-0.07099,0*
20,0,0.00400,0.03937,0.00000,0.11036,0.07099,0*
20,0,0.00400,-0.03937,0.00000,-0.11036,0.07099,0*
20,0,0.00400,0.03937,0.00000,0.11036,-0.07099,0*
%
%ADD71THRECTD71*%

%AMTHRECTD72*
4,1,4,-0.03550,0.07487,0.03550,0.07487,0.03550,-0.07487,-0.03550,-0.07487,-0.03550,0.07487,0.0*
4,0,4,-0.03150,0.07087,0.03150,0.07087,0.03150,-0.07087,-0.03150,-0.07087,-0.03150,0.07087,0.0*
20,0,0.00400,0.00000,0.03937,-0.07099,0.11036,0*
20,0,0.00400,0.00000,-0.03937,0.07099,-0.11036,0*
20,0,0.00400,0.00000,0.03937,0.07099,0.11036,0*
20,0,0.00400,0.00000,-0.03937,-0.07099,-0.11036,0*
%
%ADD72THRECTD72*%

%ADD73R,0.04737X0.14580*%
%ADD74C,0.04816*%
G04:AMPARAMS|DCode=75|XSize=71.779mil|YSize=71.779mil|CornerRadius=0mil|HoleSize=0mil|Usage=FLASHONLY|Rotation=0.000|XOffset=0mil|YOffset=0mil|HoleType=Round|Shape=Relief|Width=4mil|Gap=4mil|Entries=4|*
%AMTHD75*
7,0,0,0.07178,0.06378,0.00400,45*
%
%ADD75THD75*%
%ADD76C,0.05131*%
%ADD77C,0.01981*%
D55*
X69055Y157480D02*
X142913D01*
D66*
Y127992D02*
Y157480D01*
X69055Y127992D02*
X142913D01*
X69055D02*
Y157480D01*
X37528Y48819D02*
X149606Y48819D01*
Y135827D01*
X236221D01*
D67*
X0Y0D02*
Y157480D01*
X236221D01*
Y0D02*
Y157480D01*
X0Y0D02*
X236221D01*
D68*
X105984Y142736D02*
D03*
D69*
X105344Y88130D02*
D03*
X98120D02*
D03*
X108957Y91742D02*
D03*
X101732D02*
D03*
X94508D02*
D03*
X105344Y95354D02*
D03*
X98120D02*
D03*
X108957Y98966D02*
D03*
X101732D02*
D03*
X94508D02*
D03*
X105344Y102579D02*
D03*
X98120D02*
D03*
D70*
X226378Y148228D02*
D03*
Y10433D02*
D03*
X72756D02*
D03*
D71*
X44819Y7450D02*
D03*
D72*
X33008Y25954D02*
D03*
D73*
X56630D02*
D03*
D74*
X179646Y149606D02*
D03*
X203661D02*
D03*
X193661D02*
D03*
D75*
X169646D02*
D03*
X213661D02*
D03*
D76*
X219409Y99410D02*
D03*
Y85630D02*
D03*
Y71850D02*
D03*
Y58071D02*
D03*
D77*
X46181Y108937D02*
D03*
X47480Y122126D02*
D03*
Y119095D02*
D03*
X35079Y60472D02*
D03*
Y65197D02*
D03*
X29173D02*
D03*
Y59685D02*
D03*
X22874Y55748D02*
D03*
X15394D02*
D03*
X17913Y98622D02*
D03*
X150039Y104882D02*
D03*
X150197Y109724D02*
D03*
X146102Y59803D02*
D03*
X29173Y104016D02*
D03*
X62047Y60000D02*
D03*
X31417Y109921D02*
D03*
X30079Y114173D02*
D03*
X65236Y66142D02*
D03*
X12441Y121811D02*
D03*
X20157Y87835D02*
D03*
M02*
