M48
;Layer_Color=9474304
;FILE_FORMAT=2:4
INCH,TZ
;TYPE=PLATED
T1F00S00C0.0079
T2F00S00C0.0118
T3F00S00C0.0315
T5F00S00C0.0402
T6F00S00C0.0433
T7F00S00C0.0787
%
T01
X9812Y8813
X10534
X10896Y9174
X10534Y9535
X10173Y9174
X9812Y9535
X9451Y9174
Y9897
X10173
X9812Y10258
X10534
X10896Y9897
T02
X1378Y1378
X2756
X4134
X5512
X4823Y2756
X4134Y4134
X5512
X6890
X8268
X9646
X11024
X12402
X13091Y2756
X14469
X13780Y1378
X15157
X12402
X11024
X9646
X8268
X8957Y2756
X10335
X11713
X7579
Y5512
X6201
X6205Y6000
X6524Y6614
X8268Y6890
X9646
X11024
X12402
X13091Y8268
X11713
X10335
X8957
X8268Y9646
X8957Y11024
X10335
X11713
X13091
X15020Y10972
X15004Y10488
X12402Y9646
Y12402
X11024
X9646
X8268
X6201Y13780
X4823
X4748Y12213
Y11909
X4134Y12402
X2756
X3008Y11417
X3142Y10992
X2917Y10402
X2756Y9646
X1791Y9862
X1378Y9646
X2016Y8783
X2067Y8268
X2917Y6520
Y5968
X3508Y6047
Y6520
X2287Y5575
X1539
X1378Y4134
X2756
X2067Y2756
X4823Y5512
Y8268
X5512Y9646
X6201Y11024
X4618Y10894
X1244Y12181
X2067Y13780
X15031Y14665
X14610Y5980
X14469Y5512
X15846
X17224
X18602
X19980
X20669Y6890
Y9646
X19291
X17913
X16535
Y4134
Y1378
X17913
X19291
X20669
X22047
X22736Y2756
X21358
X22047Y4134
X22736Y5512
Y8268
Y11024
X22047Y12402
X20669
T03
X16031Y2062
Y5986
X16012Y9890
T05
X16965Y14961
X17965
X19366
X20366
X21366
T06
X21941Y5807
Y7185
Y8563
Y9941
T07
X7276Y1043
X22638
Y14823
M30
