G04*
G04 #@! TF.GenerationSoftware,Altium Limited,Altium Designer,21.2.1 (34)*
G04*
G04 Layer_Color=255*
%FSLAX25Y25*%
%MOIN*%
G70*
G04*
G04 #@! TF.SameCoordinates,1D3D90CA-2CC7-45D0-A42F-5F1F34DB6ECE*
G04*
G04*
G04 #@! TF.FilePolarity,Positive*
G04*
G01*
G75*
%ADD18R,0.05236X0.05236*%
%ADD19R,0.07874X0.03543*%
%ADD20R,0.03543X0.07874*%
G04:AMPARAMS|DCode=21|XSize=62.21mil|YSize=23.23mil|CornerRadius=2.9mil|HoleSize=0mil|Usage=FLASHONLY|Rotation=180.000|XOffset=0mil|YOffset=0mil|HoleType=Round|Shape=RoundedRectangle|*
%AMROUNDEDRECTD21*
21,1,0.06221,0.01742,0,0,180.0*
21,1,0.05640,0.02323,0,0,180.0*
1,1,0.00581,-0.02820,0.00871*
1,1,0.00581,0.02820,0.00871*
1,1,0.00581,0.02820,-0.00871*
1,1,0.00581,-0.02820,-0.00871*
%
%ADD21ROUNDEDRECTD21*%
%ADD22R,0.10000X0.05000*%
%ADD23O,0.10000X0.05000*%
%ADD24R,0.03543X0.02756*%
%ADD25R,0.03000X0.03000*%
G04:AMPARAMS|DCode=26|XSize=19.29mil|YSize=17.72mil|CornerRadius=2.22mil|HoleSize=0mil|Usage=FLASHONLY|Rotation=0.000|XOffset=0mil|YOffset=0mil|HoleType=Round|Shape=RoundedRectangle|*
%AMROUNDEDRECTD26*
21,1,0.01929,0.01329,0,0,0.0*
21,1,0.01486,0.01772,0,0,0.0*
1,1,0.00443,0.00743,-0.00664*
1,1,0.00443,-0.00743,-0.00664*
1,1,0.00443,-0.00743,0.00664*
1,1,0.00443,0.00743,0.00664*
%
%ADD26ROUNDEDRECTD26*%
%ADD27R,0.02756X0.03543*%
%ADD28R,0.27559X0.21463*%
%ADD29R,0.11800X0.06300*%
%ADD30R,0.03150X0.10630*%
G04:AMPARAMS|DCode=31|XSize=39.37mil|YSize=55.91mil|CornerRadius=4.92mil|HoleSize=0mil|Usage=FLASHONLY|Rotation=270.000|XOffset=0mil|YOffset=0mil|HoleType=Round|Shape=RoundedRectangle|*
%AMROUNDEDRECTD31*
21,1,0.03937,0.04606,0,0,270.0*
21,1,0.02953,0.05591,0,0,270.0*
1,1,0.00984,-0.02303,-0.01476*
1,1,0.00984,-0.02303,0.01476*
1,1,0.00984,0.02303,0.01476*
1,1,0.00984,0.02303,-0.01476*
%
%ADD31ROUNDEDRECTD31*%
%ADD32R,0.03000X0.03000*%
%ADD53C,0.08661*%
%ADD59C,0.01968*%
%ADD60C,0.11811*%
%ADD61O,0.17717X0.08858*%
%ADD62O,0.08858X0.17717*%
%ADD63O,0.09843X0.19685*%
%ADD64R,0.05394X0.05394*%
D18*
X108957Y88130D02*
D03*
X101732D02*
D03*
X94508D02*
D03*
X108957Y95354D02*
D03*
X101732D02*
D03*
X94508D02*
D03*
X108957Y102579D02*
D03*
X101732D02*
D03*
X94508D02*
D03*
D19*
X139134Y124882D02*
D03*
Y119882D02*
D03*
Y114882D02*
D03*
Y109882D02*
D03*
Y104882D02*
D03*
Y99882D02*
D03*
Y94882D02*
D03*
Y89882D02*
D03*
Y84882D02*
D03*
Y79882D02*
D03*
Y74882D02*
D03*
Y69882D02*
D03*
Y64882D02*
D03*
Y59882D02*
D03*
X72205D02*
D03*
Y64882D02*
D03*
Y69882D02*
D03*
Y74882D02*
D03*
Y79882D02*
D03*
Y84882D02*
D03*
Y89882D02*
D03*
Y94882D02*
D03*
Y99882D02*
D03*
Y104882D02*
D03*
Y109882D02*
D03*
Y114882D02*
D03*
Y119882D02*
D03*
Y124882D02*
D03*
D20*
X128169Y55945D02*
D03*
X123169D02*
D03*
X118169D02*
D03*
X113169D02*
D03*
X108169D02*
D03*
X103169D02*
D03*
X98169D02*
D03*
X93169D02*
D03*
X88169D02*
D03*
X83169D02*
D03*
D21*
X43327Y61831D02*
D03*
Y66831D02*
D03*
Y71831D02*
D03*
Y76831D02*
D03*
X22658D02*
D03*
Y71831D02*
D03*
Y66831D02*
D03*
Y61831D02*
D03*
D22*
X34291Y134264D02*
D03*
D23*
X7791D02*
D03*
X34291Y149764D02*
D03*
X7791D02*
D03*
D24*
X52148Y109108D02*
D03*
Y115013D02*
D03*
X149606Y36547D02*
D03*
Y42453D02*
D03*
Y75787D02*
D03*
Y81693D02*
D03*
Y115024D02*
D03*
Y120929D02*
D03*
X6850Y65984D02*
D03*
Y71890D02*
D03*
X6851Y76733D02*
D03*
Y82638D02*
D03*
X12559Y82677D02*
D03*
Y76772D02*
D03*
D25*
X57975Y109317D02*
D03*
Y114817D02*
D03*
X57953Y125669D02*
D03*
Y120169D02*
D03*
X52125Y125669D02*
D03*
Y120169D02*
D03*
X11535Y110091D02*
D03*
Y115591D02*
D03*
X5945Y110051D02*
D03*
Y115551D02*
D03*
X51339Y66378D02*
D03*
Y71878D02*
D03*
X12559Y71772D02*
D03*
Y66272D02*
D03*
D26*
X24567Y111634D02*
D03*
Y114193D02*
D03*
Y116753D02*
D03*
Y109075D02*
D03*
X16929Y111634D02*
D03*
Y114193D02*
D03*
Y116753D02*
D03*
Y109075D02*
D03*
D27*
X17795Y104016D02*
D03*
X23701D02*
D03*
X17795Y121850D02*
D03*
X23701D02*
D03*
D28*
X187008Y39500D02*
D03*
Y117976D02*
D03*
Y78740D02*
D03*
D29*
X160313Y30800D02*
D03*
Y48400D02*
D03*
Y109276D02*
D03*
Y126876D02*
D03*
Y70040D02*
D03*
Y87640D02*
D03*
D30*
X37362Y87795D02*
D03*
X28701D02*
D03*
D31*
X59173Y71909D02*
D03*
Y64547D02*
D03*
D32*
X30906Y54488D02*
D03*
X36406D02*
D03*
X12480Y87835D02*
D03*
X6980D02*
D03*
D53*
X219409Y99410D02*
D03*
Y85630D02*
D03*
Y71850D02*
D03*
Y58071D02*
D03*
D59*
X105344Y88130D02*
D03*
X98120D02*
D03*
X108957Y91742D02*
D03*
X101732D02*
D03*
X94508D02*
D03*
X105344Y95354D02*
D03*
X98120D02*
D03*
X108957Y98966D02*
D03*
X101732D02*
D03*
X94508D02*
D03*
X105344Y102579D02*
D03*
X98120D02*
D03*
D60*
X226378Y148228D02*
D03*
Y10433D02*
D03*
X72756D02*
D03*
D61*
X44819Y7450D02*
D03*
D62*
X33008Y25954D02*
D03*
D63*
X56630D02*
D03*
D64*
X179646Y149606D02*
D03*
X169646D02*
D03*
X213661D02*
D03*
X203661D02*
D03*
X193661D02*
D03*
M02*
